<svg width="20" height="20" viewBox="0 0 20 20" fill="none" xmlns="http://www.w3.org/2000/svg">
<path d="M19.1251 7.99983C18.9689 7.8436 18.7569 7.75584 18.536 7.75584C18.315 7.75584 18.1031 7.8436 17.9468 7.99983L8.87014 17.1157C8.48323 17.5026 8.0239 17.8096 7.51836 18.019C7.01282 18.2285 6.47098 18.3363 5.92377 18.3363C4.81863 18.3364 3.75873 17.8975 2.97722 17.1161C2.19572 16.3347 1.75663 15.2748 1.75655 14.1697C1.75648 13.0646 2.19541 12.0047 2.97681 11.2232L11.7676 2.3965C12.2377 1.93391 12.8715 1.6758 13.531 1.67841C14.1906 1.68102 14.8223 1.94412 15.2887 2.41042C15.7551 2.87671 16.0184 3.50841 16.0211 4.16792C16.0239 4.82743 15.766 5.46131 15.3035 5.9315L6.51264 14.7582C6.3541 14.91 6.14303 14.9948 5.92347 14.9948C5.70392 14.9948 5.49285 14.91 5.33431 14.7582C5.17808 14.6019 5.09032 14.39 5.09032 14.169C5.09032 13.948 5.17808 13.7361 5.33431 13.5798L13.161 5.71733C13.3128 5.56016 13.3968 5.34966 13.3949 5.13116C13.393 4.91266 13.3053 4.70365 13.1508 4.54915C12.9963 4.39464 12.7873 4.307 12.5688 4.3051C12.3503 4.3032 12.1398 4.3872 11.9826 4.539L4.15597 12.4015C3.92378 12.6336 3.7396 12.9093 3.61393 13.2126C3.48827 13.5159 3.42359 13.8411 3.42359 14.1694C3.42359 14.4978 3.48827 14.8229 3.61393 15.1262C3.7396 15.4296 3.92378 15.7052 4.15597 15.9373C4.63232 16.3919 5.26546 16.6455 5.92389 16.6455C6.58232 16.6455 7.21546 16.3919 7.69181 15.9373L16.4818 7.10983C17.2468 6.32508 17.6718 5.27054 17.6648 4.17464C17.6578 3.07874 17.2193 2.02973 16.4443 1.25485C15.6693 0.479968 14.6202 0.0416165 13.5243 0.0347499C12.4284 0.0278832 11.3739 0.453055 10.5893 1.21816L1.79847 10.0448C0.704457 11.1388 0.0898437 12.6227 0.0898438 14.1698C0.0898438 15.717 0.704457 17.2008 1.79847 18.2948C2.89249 19.3888 4.3763 20.0035 5.92347 20.0035C7.47065 20.0035 8.95446 19.3888 10.0485 18.2948L19.1251 9.1815C19.203 9.10406 19.2648 9.01199 19.3069 8.9106C19.3491 8.8092 19.3708 8.70047 19.3708 8.59066C19.3708 8.48085 19.3491 8.37212 19.3069 8.27073C19.2648 8.16933 19.203 8.07727 19.1251 7.99983V7.99983Z" fill="white"/>
</svg>
