<svg xmlns="http://www.w3.org/2000/svg" width="15" height="15" viewBox="0 0 15 15" fill="none">
  <g clip-path="url(#clip0_149_2547)">
    <path d="M15 13.75H13.75V7.5C13.75 7.00272 13.5525 6.52581 13.2008 6.17417C12.8492 5.82254 12.3723 5.625 11.875 5.625H8.125V3.62125C8.41011 3.49906 8.65311 3.29589 8.82386 3.03692C8.99462 2.77795 9.08563 2.47457 9.08562 2.16438C9.08562 1.28875 7.5 0 7.5 0C7.5 0 5.91438 1.28875 5.91438 2.16438C5.91437 2.47457 6.00538 2.77795 6.17614 3.03692C6.34689 3.29589 6.58989 3.49906 6.875 3.62125V5.625H3.125C2.62772 5.625 2.15081 5.82254 1.79917 6.17417C1.44754 6.52581 1.25 7.00272 1.25 7.5V13.75H0V15H15V13.75ZM3.125 6.875H11.875C12.0408 6.875 12.1997 6.94085 12.3169 7.05806C12.4342 7.17527 12.5 7.33424 12.5 7.5V9.3625C11.915 9.3 11.5625 8.925 11.5625 8.75H10.3125C10.3125 8.96437 9.88625 9.375 9.21875 9.375C8.53813 9.375 8.125 8.94125 8.125 8.75H6.875C6.875 8.96437 6.44875 9.375 5.78125 9.375C5.10063 9.375 4.6875 8.94125 4.6875 8.75H3.4375C3.4375 8.94687 3.07562 9.305 2.5 9.36312V7.5C2.5 7.33424 2.56585 7.17527 2.68306 7.05806C2.80027 6.94085 2.95924 6.875 3.125 6.875ZM2.5 10.6119C3.07418 10.5864 3.62371 10.3712 4.0625 10C4.5446 10.4019 5.15193 10.6227 5.77956 10.6245C6.40719 10.6262 7.01571 10.4086 7.5 10.0094C7.98429 10.4086 8.59281 10.6262 9.22044 10.6245C9.84807 10.6227 10.4554 10.4019 10.9375 10C11.3764 10.371 11.9259 10.586 12.5 10.6112V13.75H2.5V10.6119Z" fill="#9B9B9B"/>
  </g>
  <defs>
    <clipPath id="clip0_149_2547">
      <rect width="15" height="15" fill="white"/>
    </clipPath>
  </defs>
</svg>