<svg xmlns="http://www.w3.org/2000/svg" width="18" height="18" viewBox="0 0 18 18" fill="none">
<g clip-path="url(#clip0_149_2416)">
<path d="M11.3182 12C16.2458 11.973 18 9.36299 18 7.12499C17.9995 6.52503 17.7936 5.94333 17.4164 5.47676C17.0392 5.01019 16.5135 4.68691 15.927 4.56074C16.029 4.27049 16.1175 4.00424 16.1768 3.80249C16.3077 3.3637 16.3334 2.90024 16.2518 2.44965C16.1703 1.99907 15.9837 1.57404 15.7073 1.20899C15.4286 0.832406 15.0651 0.526724 14.6464 0.316687C14.2276 0.10665 13.7652 -0.00184194 13.2968 -7.63948e-06H4.70325C4.23476 -0.00184194 3.77242 0.10665 3.35365 0.316687C2.93488 0.526724 2.57144 0.832406 2.29275 1.20899C2.01631 1.57404 1.82974 1.99907 1.74817 2.44965C1.6666 2.90024 1.69232 3.3637 1.82325 3.80249C1.8825 4.00424 1.97325 4.27049 2.073 4.56074C1.48645 4.68691 0.96082 5.01019 0.583633 5.47676C0.206447 5.94333 0.00046971 6.52503 0 7.12499C0 9.36299 1.75425 11.973 6.68175 12C6.72555 12.2277 6.7484 12.4589 6.75 12.6907V15C6.76289 15.2003 6.73292 15.4011 6.6621 15.5889C6.59127 15.7767 6.48122 15.9473 6.33927 16.0893C6.19733 16.2312 6.02676 16.3413 5.83893 16.4121C5.6511 16.4829 5.45033 16.5129 5.25 16.5H4.5C4.30109 16.5 4.11032 16.579 3.96967 16.7197C3.82902 16.8603 3.75 17.0511 3.75 17.25C3.75 17.4489 3.82902 17.6397 3.96967 17.7803C4.11032 17.921 4.30109 18 4.5 18H13.5C13.6989 18 13.8897 17.921 14.0303 17.7803C14.171 17.6397 14.25 17.4489 14.25 17.25C14.25 17.0511 14.171 16.8603 14.0303 16.7197C13.8897 16.579 13.6989 16.5 13.5 16.5H12.756C12.5552 16.5135 12.3539 16.4841 12.1655 16.4135C11.977 16.343 11.8058 16.2331 11.6632 16.0911C11.5207 15.9491 11.4101 15.7783 11.3388 15.5902C11.2675 15.402 11.2373 15.2008 11.25 15V12.69C11.2516 12.4584 11.2745 12.2274 11.3182 12ZM15.375 5.99999C15.6734 5.99999 15.9595 6.11852 16.1705 6.3295C16.3815 6.54048 16.5 6.82662 16.5 7.12499C16.5 8.65049 15.2933 10.275 11.973 10.4775C12.1391 10.2508 12.3308 10.0442 12.5445 9.86174C13.74 8.78474 14.6928 7.46582 15.3397 5.99249C15.3517 5.99324 15.3623 5.99999 15.375 5.99999ZM1.5 7.12499C1.5 6.82662 1.61853 6.54048 1.8295 6.3295C2.04048 6.11852 2.32663 5.99999 2.625 5.99999C2.63775 5.99999 2.64825 5.99324 2.66025 5.99249C3.30717 7.46582 4.25999 8.78474 5.4555 9.86174C5.66916 10.0442 5.86094 10.2508 6.027 10.4775C2.70675 10.275 1.5 8.65049 1.5 7.12499ZM7.88475 16.5C8.1327 16.0394 8.25845 15.523 8.25 15V12.6907C8.2526 11.9361 8.09086 11.19 7.776 10.5042C7.46114 9.8184 7.00073 9.20939 6.42675 8.71949C4.90165 7.26191 3.80673 5.413 3.26175 3.37499C3.19771 3.15987 3.18539 2.93267 3.22579 2.71189C3.26619 2.49111 3.35818 2.28299 3.49425 2.10449C3.63416 1.91589 3.81652 1.76288 4.02656 1.65786C4.2366 1.55283 4.46842 1.49875 4.70325 1.49999H13.2968C13.5318 1.4991 13.7638 1.55364 13.9739 1.65919C14.1839 1.76475 14.3662 1.91833 14.5057 2.10749C14.6418 2.28599 14.7338 2.49411 14.7742 2.71489C14.8146 2.93567 14.8023 3.16287 14.7382 3.37799C14.1928 5.41493 13.0979 7.26274 11.5732 8.71949C10.9993 9.20924 10.5389 9.81812 10.224 10.5038C9.90916 11.1895 9.7474 11.9355 9.75 12.69V15C9.74155 15.523 9.8673 16.0394 10.1153 16.5H7.88475Z" fill="#434343"/>
</g>
<defs>
<clipPath id="clip0_149_2416">
<rect width="18" height="18" fill="white"/>
</clipPath>
</defs>
</svg>