<svg xmlns="http://www.w3.org/2000/svg" width="29" height="29" viewBox="0 0 29 29" fill="none">
<path d="M23.7891 2.03906H5.21094C4.3697 2.03906 3.56293 2.37324 2.96808 2.96808C2.37324 3.56293 2.03906 4.3697 2.03906 5.21094V23.7891C2.03906 24.6303 2.37324 25.4371 2.96808 26.0319C3.56293 26.6268 4.3697 26.9609 5.21094 26.9609H14.3114V16.5914H12.2375V12.4436H14.2942V10.5691C14.2942 8.87264 15.1024 6.2222 18.6589 6.2222L21.8628 6.23506V9.78875H19.5361C19.1578 9.78875 18.6195 9.97713 18.6195 10.7852V12.4439H21.9157L21.5373 16.5917H18.4592V26.9609H23.7891C24.6303 26.9609 25.4371 26.6268 26.0319 26.0319C26.6268 25.4371 26.9609 24.6303 26.9609 23.7891V5.21094C26.9609 4.3697 26.6268 3.56293 26.0319 2.96808C25.4371 2.37324 24.6303 2.03906 23.7891 2.03906Z" fill="#757575"/>
</svg>