<svg xmlns="http://www.w3.org/2000/svg" width="20" height="20" viewBox="0 0 20 20" fill="none">
<g clip-path="url(#clip0_149_3029)">
<path d="M14.9995 15.8331C15.1643 15.8331 15.3254 15.7842 15.4624 15.6926C15.5994 15.601 15.7062 15.4709 15.7693 15.3186C15.8323 15.1664 15.8488 14.9989 15.8167 14.8372C15.7845 14.6756 15.7052 14.5271 15.5887 14.4106L10.4454 9.2681C9.66399 8.48697 8.60438 8.04816 7.49953 8.04816C6.39468 8.04816 5.33506 8.48697 4.55369 9.2681L2.74369 11.0773C2.59189 11.2344 2.5079 11.4449 2.5098 11.6634C2.5117 11.8819 2.59934 12.0909 2.75384 12.2454C2.90835 12.4 3.11736 12.4876 3.33586 12.4895C3.55436 12.4914 3.76486 12.4074 3.92203 12.2556L5.73203 10.4464C6.20804 9.99155 6.84111 9.7377 7.49953 9.7377C8.15794 9.7377 8.79101 9.99155 9.26703 10.4464L14.4104 15.5889C14.5666 15.7452 14.7785 15.8331 14.9995 15.8331Z" fill="white"/>
<path d="M13.3327 8.74972C13.9095 8.74972 14.4735 8.57866 14.9531 8.25817C15.4327 7.93768 15.8066 7.48216 16.0273 6.94921C16.2481 6.41626 16.3058 5.82981 16.1933 5.26404C16.0808 4.69826 15.803 4.17856 15.3951 3.77066C14.9872 3.36275 14.4675 3.08497 13.9017 2.97243C13.3359 2.85989 12.7495 2.91765 12.2165 3.1384C11.6836 3.35916 11.228 3.73299 10.9076 4.21264C10.5871 4.69228 10.416 5.25619 10.416 5.83305C10.416 6.6066 10.7233 7.34846 11.2703 7.89544C11.8173 8.44243 12.5591 8.74972 13.3327 8.74972ZM13.3327 4.58305C13.5799 4.58305 13.8216 4.65636 14.0271 4.79371C14.2327 4.93106 14.3929 5.12629 14.4875 5.3547C14.5821 5.5831 14.6069 5.83444 14.5587 6.07691C14.5104 6.31939 14.3914 6.54212 14.2166 6.71693C14.0417 6.89175 13.819 7.0108 13.5765 7.05903C13.3341 7.10726 13.0827 7.08251 12.8543 6.9879C12.6259 6.89329 12.4307 6.73307 12.2933 6.52751C12.156 6.32195 12.0827 6.08028 12.0827 5.83305C12.0827 5.50153 12.2144 5.18359 12.4488 4.94917C12.6832 4.71475 13.0012 4.58305 13.3327 4.58305Z" fill="white"/>
<path d="M19.1673 13.3336C18.9463 13.3336 18.7343 13.4214 18.5781 13.5777C18.4218 13.734 18.334 13.9459 18.334 14.1669V15.8336C18.334 16.4967 18.0706 17.1325 17.6017 17.6014C17.1329 18.0702 16.497 18.3336 15.834 18.3336H14.1673C13.9463 18.3336 13.7343 18.4214 13.5781 18.5777C13.4218 18.734 13.334 18.9459 13.334 19.1669C13.334 19.388 13.4218 19.5999 13.5781 19.7562C13.7343 19.9125 13.9463 20.0003 14.1673 20.0003H15.834C16.9386 19.9989 17.9977 19.5595 18.7788 18.7784C19.5599 17.9973 19.9993 16.9383 20.0006 15.8336V14.1669C20.0006 13.9459 19.9128 13.734 19.7566 13.5777C19.6003 13.4214 19.3883 13.3336 19.1673 13.3336Z" fill="white"/>
<path d="M0.833333 6.66667C1.05435 6.66667 1.26631 6.57887 1.42259 6.42259C1.57887 6.26631 1.66667 6.05435 1.66667 5.83333V4.16667C1.66667 3.50363 1.93006 2.86774 2.3989 2.3989C2.86774 1.93006 3.50363 1.66667 4.16667 1.66667H5.83333C6.05435 1.66667 6.26631 1.57887 6.42259 1.42259C6.57887 1.26631 6.66667 1.05435 6.66667 0.833333C6.66667 0.61232 6.57887 0.400358 6.42259 0.244078C6.26631 0.0877974 6.05435 0 5.83333 0L4.16667 0C3.062 0.00132321 2.00296 0.440735 1.22185 1.22185C0.440735 2.00296 0.00132321 3.062 0 4.16667L0 5.83333C0 6.05435 0.0877974 6.26631 0.244078 6.42259C0.400358 6.57887 0.61232 6.66667 0.833333 6.66667Z" fill="white"/>
<path d="M5.83333 18.3336H4.16667C3.50363 18.3336 2.86774 18.0702 2.3989 17.6014C1.93006 17.1325 1.66667 16.4967 1.66667 15.8336V14.1669C1.66667 13.9459 1.57887 13.734 1.42259 13.5777C1.26631 13.4214 1.05435 13.3336 0.833333 13.3336C0.61232 13.3336 0.400358 13.4214 0.244078 13.5777C0.0877974 13.734 0 13.9459 0 14.1669L0 15.8336C0.00132321 16.9383 0.440735 17.9973 1.22185 18.7784C2.00296 19.5595 3.062 19.9989 4.16667 20.0003H5.83333C6.05435 20.0003 6.26631 19.9125 6.42259 19.7562C6.57887 19.5999 6.66667 19.388 6.66667 19.1669C6.66667 18.9459 6.57887 18.734 6.42259 18.5777C6.26631 18.4214 6.05435 18.3336 5.83333 18.3336Z" fill="white"/>
<path d="M15.834 0H14.1673C13.9463 0 13.7343 0.0877974 13.5781 0.244078C13.4218 0.400358 13.334 0.61232 13.334 0.833333C13.334 1.05435 13.4218 1.26631 13.5781 1.42259C13.7343 1.57887 13.9463 1.66667 14.1673 1.66667H15.834C16.497 1.66667 17.1329 1.93006 17.6017 2.3989C18.0706 2.86774 18.334 3.50363 18.334 4.16667V5.83333C18.334 6.05435 18.4218 6.26631 18.5781 6.42259C18.7343 6.57887 18.9463 6.66667 19.1673 6.66667C19.3883 6.66667 19.6003 6.57887 19.7566 6.42259C19.9128 6.26631 20.0006 6.05435 20.0006 5.83333V4.16667C19.9993 3.062 19.5599 2.00296 18.7788 1.22185C17.9977 0.440735 16.9386 0.00132321 15.834 0V0Z" fill="white"/>
</g>
<defs>
<clipPath id="clip0_149_3029">
<rect width="20" height="20" fill="white"/>
</clipPath>
</defs>
</svg>