<svg xmlns="http://www.w3.org/2000/svg" width="15" height="15" viewBox="0 0 15 15" fill="none">
  <g clip-path="url(#clip0_149_2546)">
    <path d="M7.5 3.75C7.00555 3.75 6.5222 3.89662 6.11108 4.17133C5.69995 4.44603 5.37952 4.83648 5.1903 5.29329C5.00108 5.75011 4.95157 6.25277 5.04804 6.73773C5.1445 7.22268 5.3826 7.66814 5.73223 8.01777C6.08187 8.3674 6.52732 8.6055 7.01228 8.70196C7.49723 8.79843 7.9999 8.74892 8.45671 8.5597C8.91353 8.37048 9.30397 8.05005 9.57868 7.63893C9.85338 7.2278 10 6.74445 10 6.25C10 5.58696 9.73661 4.95107 9.26777 4.48223C8.79893 4.01339 8.16304 3.75 7.5 3.75ZM7.5 7.5C7.25277 7.5 7.0111 7.42669 6.80554 7.28934C6.59998 7.15199 6.43976 6.95676 6.34515 6.72835C6.25054 6.49995 6.22579 6.24861 6.27402 6.00614C6.32225 5.76366 6.4413 5.54093 6.61612 5.36612C6.79093 5.1913 7.01366 5.07225 7.25614 5.02402C7.49861 4.97579 7.74995 5.00054 7.97836 5.09515C8.20676 5.18976 8.40199 5.34998 8.53934 5.55554C8.67669 5.7611 8.75 6.00277 8.75 6.25C8.75 6.58152 8.61831 6.89946 8.38388 7.13388C8.14946 7.3683 7.83152 7.5 7.5 7.5Z" fill="#9B9B9B"/>
    <path d="M7.49922 15.0002C6.97293 15.0029 6.45366 14.8794 5.98488 14.6402C5.51611 14.401 5.11147 14.0529 4.80484 13.6252C2.42297 10.3396 1.21484 7.86956 1.21484 6.28331C1.21484 4.61659 1.87695 3.01813 3.05549 1.83958C4.23404 0.661034 5.8325 -0.00106812 7.49922 -0.00106812C9.16594 -0.00106812 10.7644 0.661034 11.9429 1.83958C13.1215 3.01813 13.7836 4.61659 13.7836 6.28331C13.7836 7.86956 12.5755 10.3396 10.1936 13.6252C9.88697 14.0529 9.48233 14.401 9.01355 14.6402C8.54478 14.8794 8.0255 15.0029 7.49922 15.0002ZM7.49922 1.36331C6.19448 1.3648 4.9436 1.88376 4.02101 2.80635C3.09842 3.72894 2.57946 4.97982 2.57797 6.28456C2.57797 7.54081 3.76109 9.86393 5.90859 12.8258C6.0909 13.0769 6.33007 13.2813 6.60654 13.4222C6.883 13.5631 7.18891 13.6366 7.49922 13.6366C7.80953 13.6366 8.11543 13.5631 8.3919 13.4222C8.66836 13.2813 8.90753 13.0769 9.08984 12.8258C11.2373 9.86393 12.4205 7.54081 12.4205 6.28456C12.419 4.97982 11.9 3.72894 10.9774 2.80635C10.0548 1.88376 8.80396 1.3648 7.49922 1.36331Z" fill="#9B9B9B"/>
  </g>
  <defs>
    <clipPath id="clip0_149_2546">
      <rect width="15" height="15" fill="white"/>
    </clipPath>
  </defs>
</svg>