
<svg width="14" height="14" viewBox="0 0 14 14" fill="none" xmlns="http://www.w3.org/2000/svg">
<g clip-path="url(#clip0_445_1406)">
<path d="M11.0827 4.66667V4.08333C11.0827 3.00037 10.6525 1.96175 9.8867 1.19598C9.12093 0.430207 8.08232 0 6.99935 0C5.91638 0 4.87777 0.430207 4.112 1.19598C3.34622 1.96175 2.91602 3.00037 2.91602 4.08333V4.66667H1.16602V12.25C1.16602 12.7141 1.35039 13.1592 1.67858 13.4874C2.00677 13.8156 2.45189 14 2.91602 14H11.0827C11.5468 14 11.9919 13.8156 12.3201 13.4874C12.6483 13.1592 12.8327 12.7141 12.8327 12.25V4.66667H11.0827ZM4.08268 4.08333C4.08268 3.30979 4.38997 2.56792 4.93695 2.02094C5.48394 1.47396 6.2258 1.16667 6.99935 1.16667C7.7729 1.16667 8.51476 1.47396 9.06174 2.02094C9.60872 2.56792 9.91602 3.30979 9.91602 4.08333V4.66667H4.08268V4.08333ZM11.666 12.25C11.666 12.4047 11.6046 12.5531 11.4952 12.6625C11.3858 12.7719 11.2374 12.8333 11.0827 12.8333H2.91602C2.76131 12.8333 2.61293 12.7719 2.50354 12.6625C2.39414 12.5531 2.33268 12.4047 2.33268 12.25V5.83333H11.666V12.25Z" fill="#666"/>
<path d="M7.58269 8.1665H6.41602V10.4998H7.58269V8.1665Z" fill="#666"/>
</g>
<defs>
<clipPath id="clip0_445_1406">
<rect width="14" height="14" fill="white"/>
</clipPath>
</defs>
</svg>
