<svg xmlns="http://www.w3.org/2000/svg" width="18" height="18" viewBox="0 0 18 18" fill="none">
<g clip-path="url(#clip0_149_2409)">
<path d="M9.00004 9C9.59339 9 10.1734 8.82405 10.6668 8.49441C11.1601 8.16476 11.5446 7.69623 11.7717 7.14805C11.9987 6.59987 12.0582 5.99667 11.9424 5.41473C11.8266 4.83279 11.5409 4.29824 11.1214 3.87868C10.7018 3.45912 10.1673 3.1734 9.58531 3.05764C9.00337 2.94189 8.40017 3.0013 7.85199 3.22836C7.30381 3.45542 6.83528 3.83994 6.50563 4.33329C6.17599 4.82664 6.00004 5.40666 6.00004 6C6.00004 6.79565 6.31611 7.55871 6.87872 8.12132C7.44133 8.68393 8.20439 9 9.00004 9ZM9.00004 4.5C9.29671 4.5 9.58672 4.58797 9.8334 4.7528C10.0801 4.91762 10.2723 5.15189 10.3859 5.42597C10.4994 5.70006 10.5291 6.00166 10.4712 6.29264C10.4133 6.58361 10.2705 6.85088 10.0607 7.06066C9.85092 7.27044 9.58365 7.4133 9.29268 7.47118C9.00171 7.52906 8.70011 7.49935 8.42602 7.38582C8.15193 7.27229 7.91766 7.08003 7.75284 6.83335C7.58802 6.58668 7.50004 6.29667 7.50004 6C7.50004 5.60218 7.65808 5.22064 7.93938 4.93934C8.22069 4.65804 8.60222 4.5 9.00004 4.5ZM15.495 6.86775L14.9558 6.6885C15.0528 5.84844 14.9712 4.99736 14.7162 4.19106C14.4613 3.38477 14.0388 2.64147 13.4764 2.00992C12.914 1.37836 12.2245 0.87282 11.4531 0.526435C10.6816 0.18005 9.84569 0.000650611 9.00004 0C8.14336 0.000330727 7.2967 0.184271 6.5171 0.539426C5.73751 0.894582 5.04309 1.4127 4.48063 2.05888C3.91818 2.70506 3.50075 3.46428 3.25647 4.2854C3.0122 5.10652 2.94675 5.97045 3.06454 6.819C2.34682 6.95282 1.68314 7.29144 1.15354 7.794C0.786922 8.14256 0.495469 8.56242 0.297101 9.02777C0.0987322 9.49313 -0.00235903 9.99414 4.17803e-05 10.5V13.5563C0.00161798 14.3672 0.265386 15.156 0.751985 15.8048C1.23858 16.4536 1.92193 16.9277 2.70004 17.1562L4.85254 17.8312C5.21409 17.9438 5.59064 18.0007 5.96929 18C6.31278 17.9996 6.65464 17.9526 6.98554 17.8605L11.3205 16.578C11.7067 16.4726 12.1141 16.4726 12.5003 16.578L14.2905 17.178C14.7318 17.2854 15.1916 17.2912 15.6354 17.1951C16.0792 17.0989 16.4954 16.9032 16.8526 16.6228C17.2098 16.3424 17.4986 15.9845 17.6974 15.5762C17.8962 15.1679 17.9996 14.7199 18 14.2657V10.404C17.9983 9.62806 17.7567 8.87163 17.3082 8.23841C16.8598 7.60519 16.2264 7.12616 15.495 6.867V6.86775ZM5.81854 2.8215C6.23573 2.40262 6.73154 2.07024 7.2775 1.84345C7.82347 1.61666 8.40885 1.49991 9.00004 1.49991C9.59124 1.49991 10.1766 1.61666 10.7226 1.84345C11.2685 2.07024 11.7643 2.40262 12.1815 2.8215C13.0232 3.66836 13.4962 4.81336 13.4978 6.0073C13.4993 7.20124 13.0292 8.34747 12.1898 9.1965L9.52504 11.7878C9.38596 11.9241 9.19895 12.0005 9.00417 12.0005C8.80939 12.0005 8.62237 11.9241 8.48329 11.7878L5.81854 9.20775C4.97514 8.35904 4.50177 7.21113 4.50177 6.01462C4.50177 4.81812 4.97514 3.67021 5.81854 2.8215ZM16.5 14.2657C16.5005 14.4929 16.4491 14.7172 16.3498 14.9215C16.2505 15.1258 16.1059 15.3048 15.927 15.4447C15.758 15.5807 15.5611 15.6777 15.3503 15.7289C15.1396 15.7801 14.9201 15.7842 14.7075 15.741L12.9488 15.15C12.2835 14.9589 11.5785 14.9547 10.911 15.138L6.57304 16.419C6.15625 16.534 5.71516 16.5264 5.30254 16.3973L3.13204 15.7222C2.66228 15.5864 2.24926 15.3018 1.95499 14.9113C1.66072 14.5207 1.50108 14.0453 1.50004 13.5563V10.5C1.49836 10.1968 1.5587 9.89653 1.67736 9.61755C1.79602 9.33857 1.97049 9.08681 2.19004 8.87775C2.53373 8.5502 2.97155 8.33876 3.44179 8.27325C3.74412 9.02263 4.19433 9.70343 4.76554 10.275L7.44079 12.8647C7.85892 13.2742 8.42084 13.5035 9.00604 13.5035C9.59125 13.5035 10.1532 13.2742 10.5713 12.8647L13.2435 10.2675C13.8419 9.66678 14.3054 8.94553 14.6033 8.15175L15.006 8.28525C15.4428 8.44176 15.8207 8.72922 16.088 9.1084C16.3554 9.48759 16.4993 9.94003 16.5 10.404V14.2657Z" fill="#434343"/>
</g>
<defs>
<clipPath id="clip0_149_2409">
<rect width="18" height="18" fill="white"/>
</clipPath>
</defs>
</svg>