<svg xmlns="http://www.w3.org/2000/svg" width="26" height="26" viewBox="0 0 26 26" fill="none">
<g clip-path="url(#clip0_85_1922)">
<path d="M13.0083 25.9997C10.8287 26.0137 8.68126 25.4727 6.76838 24.4277C6.73007 24.4117 6.68897 24.4035 6.64745 24.4035C6.60594 24.4035 6.56484 24.4117 6.52653 24.4277L2.25771 25.6369C1.99645 25.7201 1.71739 25.73 1.45088 25.6656C1.18438 25.6012 0.940624 25.465 0.746131 25.2717C0.551638 25.0785 0.413849 24.8356 0.347748 24.5695C0.281646 24.3035 0.289762 24.0243 0.371213 23.7625L1.65307 19.4695C1.6809 19.3955 1.6809 19.3138 1.65307 19.2398C0.342072 16.8437 -0.180934 14.0955 0.158279 11.3854C0.497491 8.67526 1.68169 6.14081 3.5428 4.14175C5.4039 2.1427 7.84737 0.780608 10.5264 0.248808C13.2054 -0.282991 15.9839 0.0425155 18.4674 1.17913C20.951 2.31574 23.0134 4.20572 24.3621 6.58081C25.7108 8.9559 26.2771 11.6954 25.9807 14.4106C25.6843 17.1258 24.5403 19.6786 22.711 21.7068C20.8817 23.735 18.46 25.1355 15.7897 25.7095C14.8747 25.8997 13.9429 25.9969 13.0083 25.9997ZM6.61118 22.5291C6.97019 22.534 7.32276 22.6252 7.63908 22.7951C9.20404 23.6533 10.9517 24.1246 12.7359 24.1696C14.5202 24.2146 16.2894 23.832 17.8956 23.0537C19.5018 22.2754 20.8985 21.124 21.9689 19.6958C23.0393 18.2676 23.7524 16.6039 24.0487 14.8438C24.3449 13.0837 24.2157 11.2783 23.6718 9.57834C23.1278 7.87839 22.185 6.33328 20.9221 5.07207C19.6591 3.81086 18.1127 2.87018 16.412 2.3286C14.7113 1.78703 12.9057 1.66028 11.146 1.95895C9.38295 2.25187 7.71598 2.96388 6.28534 4.0351C4.85469 5.10632 3.7022 6.50543 2.9248 8.11475C2.1474 9.72407 1.76781 11.4965 1.81798 13.2831C1.86814 15.0696 2.34658 16.818 3.21306 18.3812C3.3493 18.6279 3.43546 18.8992 3.46659 19.1794C3.49772 19.4595 3.4732 19.7431 3.39445 20.0137L2.26981 23.7504L6.00653 22.6258C6.20224 22.5641 6.40597 22.5315 6.61118 22.5291Z" fill="white"/>
<path d="M8.17178 15.0556C9.00662 15.0556 9.68339 14.3788 9.68339 13.544C9.68339 12.7091 9.00662 12.0323 8.17178 12.0323C7.33693 12.0323 6.66016 12.7091 6.66016 13.544C6.66016 14.3788 7.33693 15.0556 8.17178 15.0556Z" fill="white"/>
<path d="M13.0097 15.0557C13.8445 15.0557 14.5213 14.3789 14.5213 13.5441C14.5213 12.7092 13.8445 12.0325 13.0097 12.0325C12.1748 12.0325 11.498 12.7092 11.498 13.5441C11.498 14.3789 12.1748 15.0557 13.0097 15.0557Z" fill="white"/>
<path d="M17.8466 15.0556C18.6814 15.0556 19.3582 14.3788 19.3582 13.544C19.3582 12.7091 18.6814 12.0323 17.8466 12.0323C17.0117 12.0323 16.335 12.7091 16.335 13.544C16.335 14.3788 17.0117 15.0556 17.8466 15.0556Z" fill="white"/>
</g>
<defs>
<clipPath id="clip0_85_1922">
<rect width="26" height="26" fill="white"/>
</clipPath>
</defs>
</svg>