<svg xmlns="http://www.w3.org/2000/svg" width="20" height="20" viewBox="0 0 20 20" fill="none">
<g clip-path="url(#clip0_149_3044)">
<path d="M19.79 9.08594C19.5845 8.66162 19.2419 8.31902 18.8176 8.11352L3.00875 0.463716C1.96734 -0.040825 0.714146 0.394433 0.209605 1.43585C0.0824815 1.69826 0.0115311 1.98433 0.00129221 2.27574C-0.00894666 2.56715 0.0417515 2.85749 0.150144 3.12818L2.89912 9.99926L0.150144 16.871C-0.278035 17.949 0.248727 19.17 1.32668 19.5981C1.57043 19.6949 1.83016 19.7452 2.09244 19.7464C2.40976 19.7464 2.72298 19.6748 3.00875 19.5369L18.8175 11.885C19.859 11.3806 20.2944 10.1274 19.79 9.08594ZM2.40043 18.2776C2.05323 18.4457 1.63553 18.3005 1.46746 17.9533C1.42511 17.8658 1.40148 17.7705 1.39809 17.6734C1.3947 17.5762 1.41162 17.4795 1.44778 17.3892L4.12411 10.6977H18.0653L2.40043 18.2776ZM4.12415 9.30082L1.44782 2.60923C1.39347 2.47908 1.38087 2.33527 1.41177 2.19765C1.44267 2.06004 1.51554 1.93541 1.62031 1.84098C1.72167 1.74221 1.85145 1.6777 1.99139 1.65652C2.13133 1.63535 2.27438 1.65859 2.40043 1.72296L18.0653 9.30082H4.12415Z" fill="white"/>
</g>
<defs>
<clipPath id="clip0_149_3044">
<rect width="20" height="20" fill="white"/>
</clipPath>
</defs>
</svg>