<svg width="17" height="17" viewBox="0 0 17 17" fill="none" xmlns="http://www.w3.org/2000/svg">
<g id="fi-rr-settings" clip-path="url(#clip0_1_325)">
<path id="Vector" d="M8.50008 5.66711C7.9397 5.66711 7.39191 5.83329 6.92597 6.14462C6.46003 6.45595 6.09687 6.89845 5.88242 7.41618C5.66798 7.9339 5.61187 8.50359 5.72119 9.0532C5.83052 9.60282 6.10036 10.1077 6.49661 10.5039C6.89286 10.9002 7.39771 11.17 7.94733 11.2793C8.49694 11.3887 9.06663 11.3326 9.58435 11.1181C10.1021 10.9037 10.5446 10.5405 10.8559 10.0746C11.1672 9.60862 11.3334 9.06083 11.3334 8.50045C11.3334 7.749 11.0349 7.02833 10.5036 6.49698C9.9722 5.96563 9.25153 5.66711 8.50008 5.66711ZM8.50008 9.91711C8.21989 9.91711 7.94599 9.83403 7.71303 9.67836C7.48006 9.5227 7.29848 9.30144 7.19125 9.04258C7.08403 8.78372 7.05597 8.49888 7.11064 8.22407C7.1653 7.94926 7.30022 7.69684 7.49835 7.49871C7.69647 7.30059 7.9489 7.16566 8.2237 7.111C8.49851 7.05634 8.78336 7.08439 9.04222 7.19162C9.30108 7.29884 9.52233 7.48042 9.678 7.71339C9.83366 7.94636 9.91675 8.22026 9.91675 8.50045C9.91675 8.87617 9.76749 9.23651 9.50182 9.50218C9.23614 9.76786 8.87581 9.91711 8.50008 9.91711Z" fill="#9B9B9B"/>
<path id="Vector_2" d="M15.0833 9.84583L14.7688 9.6645C14.9104 8.89415 14.9104 8.10444 14.7688 7.33408L15.0833 7.15275C15.3252 7.01322 15.5372 6.82742 15.7072 6.60596C15.8773 6.3845 16.002 6.13171 16.0744 5.86204C16.1467 5.59236 16.1652 5.31107 16.1289 5.03424C16.0925 4.7574 16.002 4.49043 15.8625 4.24858C15.7229 4.00673 15.5371 3.79473 15.3157 3.62469C15.0942 3.45464 14.8414 3.32988 14.5718 3.25753C14.3021 3.18517 14.0208 3.16665 13.744 3.203C13.4671 3.23936 13.2002 3.32989 12.9583 3.46942L12.6431 3.65146C12.0478 3.14282 11.3636 2.74851 10.6251 2.48837V2.125C10.6251 1.56141 10.4012 1.02091 10.0027 0.622398C9.60415 0.223883 9.06365 0 8.50006 0C7.93648 0 7.39597 0.223883 6.99746 0.622398C6.59894 1.02091 6.37506 1.56141 6.37506 2.125V2.48837C5.63654 2.74944 4.95262 3.14472 4.35773 3.65429L4.0411 3.47083C3.55266 3.18904 2.97229 3.11282 2.42765 3.25894C1.88301 3.40507 1.41873 3.76156 1.13694 4.25C0.855143 4.73844 0.778925 5.31882 0.925047 5.86345C1.07117 6.40809 1.42766 6.87237 1.9161 7.15417L2.2306 7.3355C2.08901 8.10585 2.08901 8.89556 2.2306 9.66592L1.9161 9.84725C1.42766 10.129 1.07117 10.5933 0.925047 11.138C0.778925 11.6826 0.855143 12.263 1.13694 12.7514C1.41873 13.2399 1.88301 13.5964 2.42765 13.7425C2.97229 13.8886 3.55266 13.8124 4.0411 13.5306L4.35631 13.3485C4.95185 13.8573 5.63626 14.2516 6.37506 14.5116V14.875C6.37506 15.4386 6.59894 15.9791 6.99746 16.3776C7.39597 16.7761 7.93648 17 8.50006 17C9.06365 17 9.60415 16.7761 10.0027 16.3776C10.4012 15.9791 10.6251 15.4386 10.6251 14.875V14.5116C11.3636 14.2506 12.0475 13.8553 12.6424 13.3457L12.959 13.5285C13.4475 13.8103 14.0278 13.8865 14.5725 13.7403C15.1171 13.5942 15.5814 13.2377 15.8632 12.7493C16.145 12.2609 16.2212 11.6805 16.0751 11.1358C15.929 10.5912 15.5725 10.1269 15.084 9.84513L15.0833 9.84583ZM13.2785 7.17117C13.5184 8.04034 13.5184 8.95825 13.2785 9.82742C13.2366 9.9787 13.2461 10.1396 13.3056 10.2849C13.3651 10.4301 13.4712 10.5515 13.6071 10.63L14.375 11.0734C14.5378 11.1673 14.6566 11.3221 14.7052 11.5036C14.7539 11.6851 14.7285 11.8785 14.6346 12.0413C14.5407 12.2041 14.3859 12.3229 14.2044 12.3716C14.0229 12.4203 13.8294 12.3948 13.6666 12.3009L12.8974 11.8561C12.7613 11.7773 12.6029 11.746 12.4471 11.7671C12.2912 11.7883 12.1469 11.8607 12.0368 11.973C11.4063 12.6166 10.612 13.0758 9.73965 13.3011C9.58738 13.3402 9.45246 13.4289 9.35615 13.5532C9.25984 13.6775 9.20761 13.8302 9.20769 13.9875V14.875C9.20769 15.0629 9.13306 15.243 9.00022 15.3759C8.86738 15.5087 8.68721 15.5833 8.49935 15.5833C8.31149 15.5833 8.13132 15.5087 7.99849 15.3759C7.86565 15.243 7.79102 15.0629 7.79102 14.875V13.9882C7.7911 13.8309 7.73887 13.6782 7.64256 13.5539C7.54625 13.4296 7.41133 13.3409 7.25906 13.3018C6.38664 13.0756 5.59259 12.6154 4.96264 11.9708C4.85252 11.8586 4.70817 11.7862 4.55235 11.765C4.39653 11.7439 4.23809 11.7751 4.10202 11.854L3.33419 12.2981C3.2536 12.3453 3.16446 12.3762 3.07191 12.3888C2.97935 12.4015 2.88521 12.3957 2.7949 12.3718C2.70459 12.3479 2.61989 12.3064 2.54568 12.2497C2.47148 12.193 2.40923 12.1221 2.36252 12.0412C2.31581 11.9603 2.28557 11.871 2.27353 11.7783C2.26148 11.6857 2.26789 11.5916 2.29236 11.5014C2.31684 11.4113 2.3589 11.3269 2.41614 11.253C2.47337 11.1792 2.54465 11.1174 2.62585 11.0712L3.39369 10.6278C3.52965 10.5494 3.63571 10.428 3.69519 10.2827C3.75468 10.1375 3.76424 9.97657 3.72235 9.82529C3.48248 8.95612 3.48248 8.03821 3.72235 7.16904C3.76348 7.01808 3.75347 6.85775 3.69389 6.71308C3.6343 6.56841 3.52849 6.44754 3.39298 6.36933L2.62514 5.92592C2.46236 5.83199 2.34356 5.67724 2.29488 5.49571C2.24619 5.31419 2.27161 5.12076 2.36554 4.95798C2.45947 4.7952 2.61422 4.6764 2.79574 4.62771C2.97727 4.57903 3.1707 4.60444 3.33348 4.69837L4.10273 5.14321C4.23843 5.2222 4.39653 5.25386 4.55218 5.23322C4.70784 5.21257 4.85222 5.1408 4.96264 5.02917C5.59312 4.38553 6.3874 3.92631 7.25977 3.70104C7.41251 3.66177 7.54778 3.57266 7.64414 3.44781C7.7405 3.32297 7.79244 3.16954 7.79173 3.01183V2.125C7.79173 1.93714 7.86636 1.75697 7.99919 1.62413C8.13203 1.49129 8.3122 1.41667 8.50006 1.41667C8.68792 1.41667 8.86809 1.49129 9.00093 1.62413C9.13377 1.75697 9.2084 1.93714 9.2084 2.125V3.01183C9.20832 3.16905 9.26055 3.32183 9.35686 3.4461C9.45317 3.57037 9.58809 3.65906 9.74035 3.69821C10.613 3.92427 11.4073 4.3845 12.0375 5.02917C12.1476 5.14141 12.292 5.21382 12.4478 5.23498C12.6036 5.25615 12.762 5.22485 12.8981 5.14604L13.6659 4.70192C13.7465 4.65467 13.8357 4.62384 13.9282 4.61118C14.0208 4.59853 14.1149 4.6043 14.2052 4.62818C14.2955 4.65206 14.3802 4.69356 14.4544 4.75031C14.5286 4.80705 14.5909 4.87791 14.6376 4.95881C14.6843 5.03971 14.7146 5.12905 14.7266 5.22168C14.7386 5.31432 14.7322 5.40842 14.7078 5.49857C14.6833 5.58873 14.6412 5.67314 14.584 5.74697C14.5268 5.8208 14.4555 5.88258 14.3743 5.92875L13.6064 6.37217C13.4712 6.45058 13.3657 6.57155 13.3063 6.7162C13.247 6.86085 13.2372 7.02107 13.2785 7.17188V7.17117Z" fill="#9B9B9B"/>
</g>
<defs>
<clipPath id="clip0_1_325">
<rect width="17" height="17" fill="white"/>
</clipPath>
</defs>
</svg>
