<svg xmlns="http://www.w3.org/2000/svg" width="17" height="17" viewBox="0 0 17 17" fill="none">
<g clip-path="url(#clip0_326_1339)">
<path d="M16.1699 6.49627L13.4222 3.74864C13.2887 3.61961 13.1097 3.54822 12.924 3.54983C12.7383 3.55145 12.5606 3.62594 12.4293 3.75727C12.298 3.8886 12.2235 4.06626 12.2219 4.25198C12.2202 4.43771 12.2916 4.61663 12.4207 4.75023L15.1683 7.49785C15.2499 7.5811 15.3213 7.67385 15.3808 7.7741C15.3702 7.7741 15.3617 7.76843 15.351 7.76843L4.24154 7.7911C4.05367 7.7911 3.87351 7.86573 3.74067 7.99857C3.60783 8.1314 3.5332 8.31157 3.5332 8.49943C3.5332 8.6873 3.60783 8.86746 3.74067 9.0003C3.87351 9.13314 4.05367 9.20777 4.24154 9.20777L15.3468 9.1851C15.3666 9.1851 15.3829 9.17518 15.402 9.17377C15.3392 9.29359 15.2595 9.40379 15.1655 9.50102L12.4178 12.2486C12.3502 12.314 12.2962 12.3921 12.2591 12.4786C12.222 12.565 12.2024 12.6579 12.2016 12.752C12.2008 12.846 12.2187 12.9393 12.2543 13.0264C12.2899 13.1134 12.3425 13.1925 12.409 13.259C12.4756 13.3255 12.5546 13.3781 12.6417 13.4137C12.7287 13.4493 12.822 13.4673 12.9161 13.4664C13.0101 13.4656 13.1031 13.4461 13.1895 13.409C13.2759 13.3718 13.3541 13.3179 13.4194 13.2502L16.167 10.5026C16.6982 9.97127 16.9966 9.25073 16.9966 8.49943C16.9966 7.74814 16.6982 7.0276 16.167 6.49627H16.1699Z" fill="#9B9B9B"/>
<path d="M4.95833 15.5833H3.54167C2.97808 15.5833 2.43758 15.3595 2.03906 14.9609C1.64055 14.5624 1.41667 14.0219 1.41667 13.4583V3.54167C1.41667 2.97808 1.64055 2.43758 2.03906 2.03906C2.43758 1.64055 2.97808 1.41667 3.54167 1.41667H4.95833C5.14619 1.41667 5.32636 1.34204 5.4592 1.2092C5.59204 1.07636 5.66667 0.896195 5.66667 0.708333C5.66667 0.520472 5.59204 0.340304 5.4592 0.207466C5.32636 0.0746278 5.14619 0 4.95833 0L3.54167 0C2.6027 0.00112473 1.70252 0.374625 1.03857 1.03857C0.374625 1.70252 0.00112473 2.6027 0 3.54167L0 13.4583C0.00112473 14.3973 0.374625 15.2975 1.03857 15.9614C1.70252 16.6254 2.6027 16.9989 3.54167 17H4.95833C5.14619 17 5.32636 16.9254 5.4592 16.7925C5.59204 16.6597 5.66667 16.4795 5.66667 16.2917C5.66667 16.1038 5.59204 15.9236 5.4592 15.7908C5.32636 15.658 5.14619 15.5833 4.95833 15.5833Z" fill="#9B9B9B"/>
</g>
<defs>
<clipPath id="clip0_326_1339">
<rect width="17" height="17" fill="white"/>
</clipPath>
</defs>
</svg>