<svg xmlns="http://www.w3.org/2000/svg" width="18" height="18" viewBox="0 0 18 18" fill="none">
<g clip-path="url(#clip0_149_2411)">
<path d="M14.849 3.31444C13.9697 2.12299 12.7834 1.19274 11.4166 0.623016C10.0498 0.0532936 8.55395 -0.134499 7.08876 0.0796936C5.66364 0.282306 4.31634 0.854263 3.18069 1.73875C2.04505 2.62323 1.16059 3.78946 0.615168 5.12157C0.0697514 6.45368 -0.117636 7.90532 0.0716223 9.33227C0.26088 10.7592 0.820196 12.1118 1.69401 13.2557C2.06606 13.7685 2.26089 14.3885 2.24901 15.0219V15.7502C2.24901 16.3469 2.48606 16.9192 2.90802 17.3412C3.32997 17.7631 3.90227 18.0002 4.49901 18.0002H9.74901C10.3457 18.0002 10.918 17.7631 11.34 17.3412C11.762 16.9192 11.999 16.3469 11.999 15.7502H12.3695C13.2784 15.748 14.1557 15.4167 14.8391 14.8176C15.5226 14.2185 15.966 13.3922 16.0873 12.4914L16.2515 11.2502H16.499C16.6971 11.2544 16.8941 11.2185 17.078 11.1446C17.2618 11.0707 17.4289 10.9603 17.569 10.8202C17.7091 10.6801 17.8195 10.513 17.8934 10.3291C17.9673 10.1453 18.0032 9.94833 17.999 9.75019C17.999 8.68519 15.8 4.48894 14.849 3.31444ZM15.5938 9.75019C15.4119 9.75026 15.2363 9.8164 15.0996 9.93629C14.9628 10.0562 14.8743 10.2217 14.8505 10.4019L14.6 12.2957C14.5271 12.836 14.2611 13.3316 13.851 13.691C13.441 14.0503 12.9147 14.2489 12.3695 14.2502H11.249C11.0501 14.2502 10.8593 14.3292 10.7187 14.4699C10.578 14.6105 10.499 14.8013 10.499 15.0002V15.7502C10.499 15.9491 10.42 16.1399 10.2793 16.2805C10.1387 16.4212 9.94792 16.5002 9.74901 16.5002H4.49901C4.3001 16.5002 4.10933 16.4212 3.96868 16.2805C3.82803 16.1399 3.74901 15.9491 3.74901 15.7502V15.0219C3.76034 14.059 3.45726 13.1187 2.88576 12.3437C2.17165 11.4083 1.71452 10.3024 1.55971 9.13577C1.4049 7.96915 1.55778 6.78233 2.0032 5.69303C2.44863 4.60374 3.1711 3.64982 4.09897 2.92592C5.02683 2.20201 6.12783 1.73327 7.29276 1.56619C7.61085 1.52204 7.93162 1.49998 8.25276 1.50019C9.30662 1.49877 10.346 1.74576 11.2865 2.22112C12.2271 2.69649 13.0424 3.38684 13.6663 4.23619C14.8508 5.94049 15.8034 7.79474 16.499 9.75019H15.5938ZM12.149 6.00844C12.0999 5.92296 12.0345 5.84799 11.9565 5.78781C11.8784 5.72763 11.7893 5.68343 11.6941 5.65773C11.599 5.63203 11.4997 5.62533 11.402 5.63802C11.3042 5.65071 11.2099 5.68254 11.1245 5.73169L10.388 6.15469C10.006 5.76753 9.52587 5.49167 8.99901 5.35669V4.50019C8.99901 4.30128 8.91999 4.11052 8.77934 3.96986C8.63869 3.82921 8.44792 3.75019 8.24901 3.75019C8.05009 3.75019 7.85933 3.82921 7.71868 3.96986C7.57802 4.11052 7.49901 4.30128 7.49901 4.50019V5.35669C6.97134 5.49129 6.49035 5.76718 6.10776 6.15469L5.37126 5.73169C5.28587 5.68245 5.19161 5.6505 5.09387 5.63768C4.99613 5.62487 4.89683 5.63142 4.80163 5.65698C4.70642 5.68254 4.61719 5.7266 4.53901 5.78665C4.46084 5.84669 4.39525 5.92155 4.34601 6.00694C4.29676 6.09234 4.26482 6.18659 4.252 6.28433C4.23918 6.38207 4.24574 6.48137 4.2713 6.57657C4.29686 6.67178 4.34092 6.76101 4.40096 6.83919C4.46101 6.91736 4.53587 6.98295 4.62126 7.03219L5.36601 7.46044C5.29144 7.71718 5.25208 7.98286 5.24901 8.25019C5.25281 8.51763 5.29293 8.78331 5.36826 9.03994L4.62351 9.46819C4.45105 9.56765 4.32517 9.73154 4.27355 9.92381C4.22193 10.1161 4.2488 10.321 4.34826 10.4934C4.44771 10.6659 4.6116 10.7918 4.80388 10.8434C4.99615 10.895 5.20105 10.8681 5.37351 10.7687L6.11001 10.3457C6.49198 10.7329 6.97215 11.0087 7.49901 11.1437V12.0002C7.49901 12.1991 7.57802 12.3899 7.71868 12.5305C7.85933 12.6712 8.05009 12.7502 8.24901 12.7502C8.44792 12.7502 8.63869 12.6712 8.77934 12.5305C8.91999 12.3899 8.99901 12.1991 8.99901 12.0002V11.1437C9.52667 11.0091 10.0077 10.7332 10.3903 10.3457L11.1268 10.7687C11.2121 10.8179 11.3064 10.8499 11.4041 10.8627C11.5019 10.8755 11.6012 10.869 11.6964 10.8434C11.7916 10.8178 11.8808 10.7738 11.959 10.7137C12.0372 10.6537 12.1028 10.5788 12.152 10.4934C12.2013 10.4081 12.2332 10.3138 12.246 10.2161C12.2588 10.1183 12.2523 10.019 12.2267 9.92381C12.2012 9.82861 12.1571 9.73937 12.0971 9.6612C12.037 9.58302 11.9621 9.51744 11.8768 9.46819L11.132 9.03994C11.2066 8.7832 11.2459 8.51752 11.249 8.25019C11.2452 7.98276 11.2051 7.71708 11.1298 7.46044L11.8745 7.03219C12.0466 6.93274 12.1721 6.76906 12.2236 6.57711C12.275 6.38516 12.2482 6.18063 12.149 6.00844ZM8.24901 9.75019C7.95234 9.75019 7.66233 9.66222 7.41565 9.4974C7.16898 9.33257 6.97672 9.09831 6.86319 8.82422C6.74966 8.55013 6.71995 8.24853 6.77783 7.95756C6.83571 7.66659 6.97857 7.39931 7.18835 7.18953C7.39813 6.97975 7.6654 6.83689 7.95637 6.77902C8.24734 6.72114 8.54894 6.75084 8.82303 6.86437C9.09712 6.97791 9.33139 7.17016 9.49621 7.41684C9.66103 7.66351 9.74901 7.95352 9.74901 8.25019C9.74901 8.64802 9.59097 9.02955 9.30967 9.31085C9.02836 9.59216 8.64683 9.75019 8.24901 9.75019Z" fill="#434343"/>
</g>
<defs>
<clipPath id="clip0_149_2411">
<rect width="18" height="18" fill="white"/>
</clipPath>
</defs>
</svg>