<svg xmlns="http://www.w3.org/2000/svg" width="18" height="18" viewBox="0 0 18 18" fill="none">
<g clip-path="url(#clip0_85_1932)">
<path d="M16.5427 3.92236L11.0121 1.28761C9.79476 0.560439 8.27953 0.547536 7.0499 1.25386L1.45717 3.92236C1.43619 3.93287 1.41442 3.94412 1.39417 3.95611C0.0669559 4.71499 -0.393802 6.40611 0.365081 7.73333C0.622319 8.18326 1.00071 8.55191 1.45717 8.79737L2.99994 9.53238V13.2074C3.00085 14.8507 4.07013 16.3025 5.63919 16.7909C6.7311 17.1068 7.86331 17.2614 8.99995 17.2499C10.1364 17.2626 11.2686 17.1093 12.3607 16.7946C13.9298 16.3063 14.999 14.8544 15 13.2111V9.53087L16.5 8.81386V14.9998C16.5 15.4141 16.8357 15.7498 17.25 15.7498C17.6642 15.7498 17.9999 15.4141 17.9999 14.9998V5.99985C18.0049 5.11915 17.3095 4.30556 16.5427 3.92236ZM13.4999 13.2111C13.5003 14.1941 12.8626 15.0635 11.9249 15.3584C10.9741 15.6301 9.98875 15.7619 8.99991 15.7499C8.01107 15.7619 7.02575 15.6301 6.07491 15.3584C5.13726 15.0635 4.49953 14.1941 4.49991 13.2111V10.2471L6.98767 11.4322C7.6015 11.7967 8.30255 11.9882 9.01644 11.9864C9.69594 11.9912 10.364 11.8113 10.9492 11.4659L13.4999 10.2471V13.2111ZM15.8999 7.44361L10.2434 10.1436C9.45473 10.6029 8.47714 10.5898 7.70092 10.1099L2.16666 7.47736C1.54978 7.14471 1.31936 6.37497 1.65201 5.75811C1.76451 5.5495 1.93319 5.37656 2.13892 5.25886L7.76016 2.57387C8.5491 2.11565 9.52617 2.12862 10.3027 2.60762L15.8332 5.24237C16.2399 5.46822 16.4943 5.8947 16.4999 6.35988C16.5006 6.80053 16.2737 7.21031 15.8999 7.44361Z" fill="#434343"/>
</g>
<defs>
<clipPath id="clip0_85_1932">
<rect width="18" height="18" fill="white"/>
</clipPath>
</defs>
</svg>