<svg xmlns="http://www.w3.org/2000/svg" width="15" height="15" viewBox="0 0 15 15" fill="none">
  <g clip-path="url(#clip0_149_2548)">
    <path d="M7.5 7.49997C8.24168 7.49997 8.9667 7.28004 9.58339 6.86798C10.2001 6.45593 10.6807 5.87026 10.9645 5.18503C11.2484 4.49981 11.3226 3.74581 11.1779 3.01838C11.0333 2.29095 10.6761 1.62277 10.1517 1.09832C9.6272 0.573874 8.95902 0.216721 8.23159 0.0720264C7.50416 -0.0726682 6.75016 0.00159431 6.06494 0.285423C5.37971 0.569252 4.79404 1.0499 4.38199 1.66658C3.96993 2.28327 3.75 3.00829 3.75 3.74997C3.75099 4.74423 4.1464 5.69748 4.84945 6.40053C5.55249 7.10357 6.50574 7.49898 7.5 7.49997ZM7.5 1.24997C7.99445 1.24997 8.4778 1.39659 8.88893 1.6713C9.30005 1.946 9.62048 2.33645 9.8097 2.79326C9.99892 3.25008 10.0484 3.75274 9.95196 4.2377C9.8555 4.72265 9.6174 5.16811 9.26777 5.51774C8.91814 5.86737 8.47268 6.10547 7.98773 6.20193C7.50277 6.2984 7.00011 6.24889 6.54329 6.05967C6.08648 5.87045 5.69603 5.55002 5.42133 5.1389C5.14662 4.72777 5 4.24442 5 3.74997C5 3.08693 5.26339 2.45105 5.73223 1.9822C6.20107 1.51336 6.83696 1.24997 7.5 1.24997Z" fill="white"/>
    <path d="M7.5 8.75037C6.00867 8.75202 4.57889 9.34518 3.52435 10.3997C2.46982 11.4543 1.87665 12.884 1.875 14.3754C1.875 14.5411 1.94085 14.7001 2.05806 14.8173C2.17527 14.9345 2.33424 15.0004 2.5 15.0004C2.66576 15.0004 2.82473 14.9345 2.94194 14.8173C3.05915 14.7001 3.125 14.5411 3.125 14.3754C3.125 13.215 3.58594 12.1022 4.40641 11.2818C5.22688 10.4613 6.33968 10.0004 7.5 10.0004C8.66032 10.0004 9.77312 10.4613 10.5936 11.2818C11.4141 12.1022 11.875 13.215 11.875 14.3754C11.875 14.5411 11.9408 14.7001 12.0581 14.8173C12.1753 14.9345 12.3342 15.0004 12.5 15.0004C12.6658 15.0004 12.8247 14.9345 12.9419 14.8173C13.0592 14.7001 13.125 14.5411 13.125 14.3754C13.1233 12.884 12.5302 11.4543 11.4756 10.3997C10.4211 9.34518 8.99133 8.75202 7.5 8.75037Z" fill="white"/>
  </g>
  <defs>
    <clipPath id="clip0_149_2548">
      <rect width="15" height="15" fill="white"/>
    </clipPath>
  </defs>
</svg>